#!OML:ASF Y:\EmotionMaleHayes\Project 1\Capture day 1\Session 1\Male1.ASF
:FULLY-SPECIFIED
:DEGREES
599
root 31.0151 15.2136 0.923563 -178.292 -43.9609 -165.399
lowerback 23.6779 4.23801 -6.23084
upperback 6.37325 2.62596 -4.3769
thorax -6.24062 0.882094 -1.93262
lowerneck -19.4088 -10.5655 -9.12209
upperneck 15.8614 -14.9498 13.5243
head 10.0121 -6.22405 3.87552
rclavicle -3.49861e-014 -1.74931e-014
rhumerus -21.3526 16.3207 -97.5507
rradius 46.2431
rwrist -12.0523
rhand -40.5046 -25.2279
rfingers 7.12502
rthumb -13.4542 -54.7734
lclavicle -3.49861e-014 -1.74931e-014
lhumerus -15.8394 16.5574 61.0989
lradius 44.331
lwrist -1.10795
lhand -32.7068 -20.716
lfingers 7.12502
lthumb -5.9311 9.18095
rfemur -22.3634 -4.11688 -4.969
rtibia 83.4638
rfoot 6.27656 -5.29197
rtoes 36.9283
lfemur -32.9131 17.2721 5.13831
ltibia 62.614
lfoot -31.6244 13.45
ltoes -27.7312
600
root 31.1612 15.2505 0.880696 -177.782 -44.8071 -165.909
lowerback 23.9165 3.95376 -6.04061
upperback 6.55523 2.3264 -4.03385
thorax -6.16442 0.736113 -1.58148
lowerneck -19.0089 -10.7631 -9.40463
upperneck 15.5715 -15.2009 13.8029
head 9.9195 -6.3564 3.98342
rclavicle -6.20208e-014 1.27222e-014
rhumerus -24.0982 15.1416 -96.4974
rradius 46.3945
rwrist -10.6263
rhand -41.3827 -27.3606
rfingers 7.12502
rthumb -14.3004 -56.8481
lclavicle -6.20208e-014 1.27222e-014
lhumerus -18.3099 18.7944 56.9099
lradius 44.378
lwrist 2.66955
lhand -33.1383 -19.1085
lfingers 7.12502
lthumb -6.34777 10.7764
rfemur -22.3626 -5.53464 -5.28044
rtibia 84.3278
rfoot 5.94376 -4.9382
rtoes 36.1036
lfemur -33.4027 16.7888 5.08908
ltibia 61.6407
lfoot -30.7768 13.2453
ltoes -28.0429
601
root 31.3048 15.2966 0.834704 -177.141 -45.4264 -166.636
lowerback 24.1404 3.77722 -5.91726
upperback 6.7862 2.12717 -3.79071
thorax -6.02492 0.62954 -1.32878
lowerneck -18.682 -11.0818 -9.72558
upperneck 15.2186 -15.6565 14.3102
head 9.8737 -6.56509 4.13486
rclavicle 7.31528e-014 -8.11041e-014
rhumerus -26.5303 13.6001 -95.1223
rradius 46.5781
rwrist -8.29423
rhand -40.7164 -28.1624
rfingers 7.12502
rthumb -13.6584 -57.6942
lclavicle 7.31528e-014 -8.11041e-014
lhumerus -20.8619 19.7959 52.6037
lradius 44.2961
lwrist 5.12179
lhand -32.7536 -16.5436
lfingers 7.12502
lthumb -5.9763 13.3521
rfemur -22.4724 -6.82734 -5.79229
rtibia 85.1322
rfoot 5.64841 -4.91017
rtoes 37.8432
lfemur -33.6267 16.1999 4.94456
ltibia 60.5122
lfoot -29.889 13.6506
ltoes -29.6893
602
root 31.4449 15.3487 0.784525 -176.351 -45.7477 -167.635
lowerback 24.3278 3.70922 -5.89067
upperback 7.04268 2.01744 -3.71171
thorax -5.83681 0.55807 -1.22491
lowerneck -18.5196 -11.4258 -9.69119
upperneck 14.9167 -16.2152 14.7007
head 9.8513 -6.80611 4.16411
rclavicle -4.77083e-015 -1.08139e-013
rhumerus -29.1833 12.7535 -94.1224
rradius 47.5713
rwrist -8.52091
rhand -41.4695 -28.3535
rfingers 7.12502
rthumb -14.3841 -57.8352
lclavicle -4.77083e-015 -1.08139e-013
lhumerus -23.3513 19.8222 48.1228
lradius 43.9187
lwrist 6.97617
lhand -31.3312 -17.5247
lfingers 7.12502
lthumb -4.6029 12.4053
rfemur -22.8177 -8.17505 -6.42973
rtibia 85.8666
rfoot 5.83346 -4.62293
rtoes 36.5347
lfemur -33.5896 15.7468 4.64476
ltibia 59.3963
lfoot -29.0662 13.5709
ltoes -29.8925
603
root 31.5764 15.4071 0.729266 -175.793 -45.7631 -168.447
lowerback 24.4801 3.6965 -5.68531
upperback 7.33973 2.00881 -3.70762
thorax -5.57963 0.529204 -1.33102
lowerneck -18.296 -11.7777 -9.39539
upperneck 14.519 -16.8455 15.085
head 9.77304 -7.07826 4.13874
rclavicle 9.85972e-014 1.59028e-015
rhumerus -31.8437 11.9646 -93.1756
rradius 48.7097
rwrist -9.07663
rhand -42.0081 -29.2678
rfingers 7.12502
rthumb -14.9029 -58.7117
lclavicle 9.85972e-014 1.59028e-015
lhumerus -25.6994 18.9286 43.9189
lradius 43.0579
lwrist 6.6855
lhand -30.585 -19.6492
lfingers 7.12502
lthumb -3.8824 10.2951
rfemur -23.2955 -9.24781 -6.88396
rtibia 86.6491
rfoot 5.7189 -4.40601
rtoes 36.6038
lfemur -33.1559 15.5002 4.57607
ltibia 58.1676
lfoot -28.2251 13.3351
ltoes -29.6417
604
root 31.7046 15.4748 0.670762 -175.616 -45.6219 -168.748
lowerback 24.6432 3.5901 -5.38954
upperback 7.53144 1.94944 -3.39062
thorax -5.45111 0.489448 -1.13527
lowerneck -17.9766 -12.0732 -9.65593
upperneck 14.3602 -17.2917 15.4918
head 9.78984 -7.28464 4.24535
rclavicle 1.59028e-015 -2.06736e-014
rhumerus -34.519 11.8457 -91.8877
rradius 49.6891
rwrist -9.29231
rhand -42.0656 -30.0532
rfingers 7.12502
rthumb -14.9584 -59.493
lclavicle 1.59028e-015 -2.06736e-014
lhumerus -28.5598 17.5192 40.3036
lradius 42.4978
lwrist 5.38427
lhand -29.2153 -18.5058
lfingers 7.12502
lthumb -2.55962 11.4586
rfemur -23.8986 -10.1665 -6.86563
rtibia 87.3993
rfoot 5.47422 -4.53427
rtoes 37.9334
lfemur -32.4773 15.375 4.98291
ltibia 56.7342
lfoot -27.2598 13.2385
ltoes -29.4747
605
root 31.8323 15.5487 0.614417 -175.251 -45.4255 -169.244
lowerback 24.634 3.49043 -4.97498
upperback 7.67015 1.94175 -3.15224
thorax -5.28935 0.479831 -1.10353
lowerneck -17.5275 -12.4021 -10.0202
upperneck 14.5287 -17.7938 15.7676
head 9.90263 -7.52382 4.31871
rclavicle -6.20208e-014 3.18055e-014
rhumerus -37.2289 11.5459 -90.5922
rradius 50.6015
rwrist -9.61023
rhand -42.3656 -30.5226
rfingers 7.12502
rthumb -15.2474 -59.9406
lclavicle -6.20208e-014 3.18055e-014
lhumerus -31.0783 15.3878 37.1646
lradius 41.324
lwrist 3.22519
lhand -27.8779 -18.7963
lfingers 7.12502
lthumb -1.26799 11.1797
rfemur -24.6837 -11.3617 -6.94996
rtibia 88.1105
rfoot 5.46057 -5.04842
rtoes 38.2904
lfemur -31.7793 15.2273 5.21876
ltibia 55.1927
lfoot -26.0408 12.8799
ltoes -28.2991
